<?xml version="1.0" encoding="UTF-8"?>
<svg id="Layer_2" data-name="Layer 2" xmlns="http://www.w3.org/2000/svg" viewBox="0 0 1165.25 487.33">
  <defs>
    <style>
      .cls-1 {
        fill: none;
        stroke: #000;
      }
    </style>
  </defs>
  <g id="_배경_요소_" data-name="배경 요소 ③">
    <g>
      <polygon id="_않" data-name="않" class="cls-1" points="281.43 450.37 275.23 482.66 270.52 450 263.29 474.25 256.9 476.71 252.87 460.48 247.13 460.27 239.19 469.85 231.63 474.29 231.05 454.57 221.49 464.22 219.35 439.83 208.97 436.92 205.22 439.91 200.42 438.82 198.51 460.39 193.7 476.72 187.03 464.4 180.37 472.56 173.7 472.85 167.03 476.02 161.07 469.25 154.9 472.74 148.66 474.23 142.45 474.11 136.48 471.9 133.66 452.19 127.96 452.42 119.77 461.93 115.11 456.61 115.94 436.5 100.78 459.63 107.23 431.24 104.01 426.94 77.07 459.3 82.05 440.34 75.94 437.88 75.52 429.22 83.96 413.69 74.68 414.77 59.88 418.34 58.26 411.98 42.76 413.25 33.22 410.06 43.18 398.69 52.19 389.15 52.67 383.07 45.88 378.73 57.28 370.75 43.24 367.12 62.89 359.23 45.24 355.06 39.91 349.41 35.43 343.41 51.1 337.2 21.39 330.59 59.49 324.97 52 317.8 59.29 311.44 46.81 304.59 30.62 295.67 49.12 293.01 66.41 292.19 32.37 284.1 57.64 265.74 53.61 262.54 48.44 259.87 44.13 256.28 46.81 248.98 36.94 247.64 11.08 250.85 10.27 243.8 31.79 231.73 13.69 229.25 .17 224.38 37.65 218.7 5.84 214.65 23.76 207.45 11.45 200.65 24.87 195.02 8.56 186.19 42.43 186.24 41.48 180.63 32.65 171.83 39.73 169.95 18.71 162.15 30.15 155.21 8.29 156.1 26.75 143.98 27.63 137.87 26.1 132.26 13.1 127.13 24.7 120.63 12.7 113.87 4.02 105.86 30.96 103.77 5.14 90.68 29.47 91.32 27.29 83.82 19.67 72.56 18.89 63.58 31.88 63.82 45.87 66.89 50.77 63.5 41.37 44.46 64.43 62.12 63.22 51.14 55.9 28.25 66.59 32.64 68.64 21.25 76.95 22.59 86.57 29.21 91.69 24.07 97.4 20.13 109.99 47.32 112.29 29 120.98 46.19 125.32 35.1 130.21 23.28 135.78 12.89 142.78 26.57 149.14 38.62 155.03 24.65 161.84 1.98 168.38 7.06 172.85 32.07 181.24 12.49 183.2 42.39 187.82 47.98 200.18 18.57 205.33 24.62 204.69 48.02 220.75 19.42 219.98 39.42 231.2 29.27 224.74 56.17 240.73 38.77 239.59 29.79 249.9 45.01 248.18 34.18 246.41 21.03 251.04 15.25 274.9 45.44 264.75 11.19 273.34 14.59 279.23 11.71 291.17 34.96 292.49 12.61 299.11 15.99 304.74 9.23 311.03 18.85 315.85 37.32 323.35 13.23 327.96 22.91 337.01 9.42 335 38.19 352.82 5.23 350.97 26.33 353.85 33.24 370.76 17.4 371.51 28.18 375.65 33.33 368.51 49.52 366.61 58.17 369.58 61.89 392.02 52.85 394.26 58.9 410.79 58.06 382.72 76.84 396.78 76.4 401.89 76.64 408.65 76.12 410.66 88.63 425.28 71.76 425.84 85.03 432.04 87.38 442.78 84.73 428.43 109.54 455.31 92.77 462.4 96.26 459.69 106.6 466 110.73 472.34 115.37 437.35 136.1 456.83 134.78 473.69 136.63 478.16 142.58 484.43 148.7 479.96 155.95 473.92 162.63 447.87 167.83 475.31 176.15 453.46 179.2 470.92 189.17 463.47 193.89 472.8 204.54 455.43 204.15 466.66 217.87 451.74 216.48 439.75 214.92 425.54 209 441.03 233.13 431.28 231.57 420.03 225.77 422.17 240.58 411.18 231.82 402.83 224.43 406.68 256.09 402.87 251.97 411.95 256.66 406.34 257.75 390.74 264.76 382.17 275.91 413.83 266.32 388.61 283.3 396.79 285.91 397.03 291.32 417.44 293.73 412.41 300.77 408.47 307.03 399.11 312.03 422.84 320.32 391.9 320.7 406.03 329.41 385.57 328.14 388.2 333.97 409.91 346.79 396.64 352.48 384.69 359.45 417.58 362.72 411.76 369.43 390.13 374.65 395.22 380.5 403.7 387.74 382.44 388.59 418.35 405.48 388.41 401.28 380.57 403.47 405.59 423.59 396.59 426.13 400.71 437.71 377.44 427.03 379.36 437.02 383.71 451.35 359.66 431.99 372.31 459.97 368.35 467.46 342.61 432.51 342.84 445.2 337.53 446.71 338.4 468.34 329.24 458.97 320.09 444.81 319.7 474.29 314.73 485.86 304.19 449.99 301.19 485.84 294.33 481.27 287.93 484.25 281.43 450.37"/>
      <polygon id="_아" data-name="아" class="cls-1" points="651.43 469.74 645.51 457.52 640.94 446.22 632.43 463.27 625.66 464 626.92 439.48 612.63 461.43 613.38 444.92 594.08 466.8 604.77 437.81 597.17 438.6 583.06 445.44 597.49 422.78 594.19 419.57 583.31 421.87 584.99 414.58 567.35 418.62 573.25 409.28 586.25 398.64 544.46 406.63 585.02 390.14 561.23 391.77 559.45 398.49 549.36 388.82 541.01 381.11 537.75 390.68 532.59 394.59 524.33 380.09 521.22 399.57 514.04 384.96 508.34 379.46 503.03 414.2 496.49 418.53 492.76 382.56 485.72 398.35 479.28 402.03 474.36 396.23 469.27 392.72 467.66 377.66 458.06 390.52 455.25 381.64 443.11 396.7 434.39 400.98 439.79 376.12 429.89 382.32 420.7 385.65 407.47 393.42 420.73 365.15 412.23 366.58 404.06 366.74 414.57 348.13 412.26 343.3 410.08 338.5 380.17 354.31 386.18 342.43 396.08 329.23 398.42 321.86 370.38 329.5 392.44 313.23 379.91 312.18 373.09 308.24 379.53 300.27 366.18 297.41 353.16 293.47 352.08 286.9 348.73 280.6 376.42 271.89 380.83 265.97 363.52 265.49 374.03 259.47 366.27 253.31 346.4 245.69 362.5 240.69 381.57 237.37 378.27 231.15 352.3 218.88 356.99 213.04 387.99 216.97 359.48 199.25 369.52 197.13 389.16 200.7 378.51 190.58 369.04 190.37 365.48 184.88 380.96 173.15 378.48 168.34 381.1 162.41 350.33 161.26 389.51 151.43 364.08 152.69 387.96 146.22 358.85 139.94 378.02 135.37 362.63 127.25 389.2 126.78 389.44 121.8 362.05 106.47 380.94 107.34 386.31 103.69 398.06 104.32 371.28 79.93 401.44 94.6 393.16 80.51 400.23 79.1 409.1 80.37 413.58 77.37 416.45 72.03 410.67 52.27 427.03 68.04 429.52 60.5 430.17 47.03 445.78 71.12 442.24 42.73 455.49 67.69 453.99 36.99 466.01 66.79 467.44 40.32 476.51 65.24 478.71 26.39 485.53 31.48 492.28 46.41 498.23 54.53 504.3 40.17 509.14 57.66 515.68 47.8 519.51 61.74 524.66 62.94 532.04 54.3 544.31 30.84 544.04 53.81 551.18 51.16 557.88 50.69 568.63 42.18 557.17 78.4 574.18 68.11 582.19 61.21 584.13 56.18 583 48.28 584.69 42.04 594.17 43.35 603.59 46.24 590.99 18.43 607.51 32.81 605.72 15.98 609.28 6.52 620.93 19.02 626.66 16.35 630.36 1.47 639.79 21.26 644.74 5.41 651.43 19.56 656.64 32.4 664.97 6.19 668.34 25.56 673.3 28.81 682.31 19.02 694.6 5.84 692.75 26.18 688.16 45.67 703.04 32.72 706.13 38.54 705.02 48.25 703.36 56.95 724.95 46.07 722.04 56 746.6 48.42 719.28 70.67 733.63 70.41 723.54 80.32 721.29 86.39 723.41 91.14 729.72 95.55 756.18 99.49 729.22 106.63 730.6 113.58 753.24 120.54 748.06 125.45 746.31 126.38 753.06 124.22 758.76 126.5 762.32 133.36 758.41 152.32 770.52 141.79 775.96 143.72 776.38 151.77 794.38 141.21 804.97 140.72 778.41 169.97 787.51 169.73 793.97 172.19 820.34 166.2 804.93 179.93 803.92 186.55 804.23 192.48 801.72 198.76 813.77 203.01 828.56 208.45 825.26 215.43 820.04 221.74 815.57 227.65 826.22 235.64 807.59 238.42 793.29 240.22 792.48 245.14 807.78 257.4 809.07 265.13 811.51 274.38 805.91 278.98 781.36 267.19 782.83 275.58 796.8 299.45 781.07 291.33 775.56 294.39 776.79 308.88 764.6 300.32 759.68 304.78 757.19 318.2 743.84 292.8 718.99 296.84 721.25 309.41 751.24 315.48 741.78 321.55 758.44 327.62 755.87 333.7 737.31 339.77 726.56 345.84 727.77 351.92 760.21 357.99 740.21 364.07 744.9 370.15 750.47 376.23 759.88 383.83 755.95 391.01 747.78 396.9 735.14 400.46 715.83 399.69 746.92 419.47 743.25 425.98 707.79 411.19 711.68 420.1 714.02 429.32 709.51 433.06 710.72 443.55 703.07 443.88 698.27 447.71 692.99 450.83 695.85 473.32 679.16 448.21 679.32 470.72 669.74 458.42 664.52 466.09 658.98 483.21 651.43 469.74"/>
      <polygon id="_도" data-name="도" class="cls-1" points="805.82 421.03 798.56 452.31 795.7 419.38 788.44 429.51 782.42 429.37 772.72 438.76 764.17 441.31 756.39 440.69 769.64 405.79 763.99 405.39 761.2 400.89 752.32 403.07 750.12 397.85 747.67 393.18 727.23 400.94 713.26 401.4 732.08 383.91 735.47 376.41 729.76 372.71 733.08 366.15 732.68 360.87 720.91 356.94 715.18 351.29 698.09 345.03 717.58 338.97 700.75 330.85 720.89 327.27 711.12 318.66 729.36 317.57 715.24 305.84 711.39 296.39 716.79 291.1 726.34 289.01 748.59 298.32 726.58 271.26 743.08 278.01 755.42 281.95 759.62 277.06 777.89 274.5 755.61 264.32 739.27 263.21 742.58 255.15 740.43 248.83 750.67 240.6 760.2 233.63 734.1 229.37 748.13 222.63 769.47 217.43 745.34 209.91 748.16 203.86 768.82 201.75 747.64 190.63 756.74 186.82 743.19 174.52 751.78 176.43 763.81 168.69 738.01 172.91 771.97 153.8 772.49 148.56 762.46 145.59 768.17 139.41 766.99 134.48 770.3 129.43 740.38 123.09 751.57 118.03 748.71 111.7 763.71 109.33 734.64 94.74 740.85 89.56 769.11 95.24 779.28 95.1 747.61 69.73 757.17 68.03 768.17 68.64 775.13 66.47 776.56 58.94 777.23 49.26 782.18 44.09 784.12 32.91 792.48 32.64 802.99 39.73 816.33 62.44 818.32 48.54 825.11 56.07 829.39 42.69 835.42 20.46 841.34 57.11 847.25 61.93 853.16 32.89 859.08 24.86 864.99 28.99 870.9 27.75 876.82 52.46 882.74 32.8 888.65 48.81 894.57 21.72 900.48 32.36 906.4 44.19 912.32 55.04 918.23 43.81 924.15 23.07 930.07 33.15 935.99 34.12 941.91 40.87 947.82 30.97 953.74 47.77 959.65 52.03 965.57 36.5 971.49 26.92 977.41 25.09 983.33 40.45 989.25 42.4 995.17 34.61 1001.1 47.02 1007.02 46.65 1013.36 38.61 1017.59 57.39 1027.35 32.62 1028.57 56.02 1040.74 35.97 1041.3 52.88 1044.77 58.86 1057 49.19 1055.53 62.55 1075.78 47.25 1079.94 53.78 1069.86 72.37 1076.93 74.12 1089.61 72.91 1067.38 93.17 1081.87 91.46 1069.63 102.37 1104.69 95.95 1095.88 105.29 1113.48 108.38 1095.14 117.84 1076.25 124.96 1076.48 129.83 1102.26 136.46 1078.53 140.17 1093.33 148.25 1103.96 157.42 1098.41 162.95 1092.72 167.91 1069.58 163.67 1077.24 174.31 1097.24 162.81 1074.18 192.44 1082.46 192.05 1105.05 183.48 1092.71 198.07 1089.08 205.85 1117.08 200.42 1093.4 215.06 1118.41 214.32 1126.84 219.64 1124.41 227.04 1107.34 234.82 1117.95 240.63 1090.11 245.34 1092.48 250.27 1120.25 259.54 1121.06 266.25 1087.89 274.98 1114.43 263.75 1108.35 281.46 1126.14 270.04 1107.59 296.63 1116.17 295.8 1137.45 287.2 1142.58 292.11 1153.54 294.34 1133.69 310.99 1148.06 312.2 1163.08 315.15 1164.03 322.72 1147.62 332.37 1163.66 337.74 1141.38 345.03 1137.37 350.73 1135.14 356.17 1137.96 362.35 1161.69 374.48 1158.34 381.3 1128.47 376.99 1147.01 392.32 1117.55 383 1119.47 390.28 1131.41 406.7 1137.44 421.39 1125.22 418.9 1106.64 406.69 1110.99 421.43 1095.08 407.14 1090.41 408.09 1090.29 419.07 1085.46 420.92 1085.86 442.14 1080.01 446.65 1073.6 450.12 1066.3 444.26 1059.82 426.34 1053.78 450.6 1047.73 420.12 1041.68 442.97 1035.64 421.17 1029.59 443.68 1023.55 452.5 1017.5 447.95 1011.45 452.52 1005.41 422.75 999.37 452.12 993.33 420.38 987.28 413.94 981.23 417 975.19 414.36 969.15 438.06 963.1 451.07 957.05 432.56 951.01 442.73 944.96 423.44 938.92 424.68 932.87 442.95 926.82 422.93 920.78 449.16 914.73 424.17 908.68 444.76 902.63 435.33 896.59 452.02 890.54 429.9 884.49 446.29 878.44 442.57 872.39 431.13 866.34 451.34 860.29 449.21 854.24 418.9 848.19 431.29 842.14 436.78 836.09 419.38 830.04 441.48 823.99 446.64 817.94 426.35 811.6 434.88 805.82 421.03"/>
    </g>
  </g>
</svg>