<?xml version="1.0" encoding="UTF-8"?>
<svg id="Layer_2" data-name="Layer 2" xmlns="http://www.w3.org/2000/svg" viewBox="0 0 1144.36 494.03">
  <defs>
    <style>
      .cls-1 {
        fill: none;
        stroke: #000;
      }
    </style>
  </defs>
  <g id="_배경_요소_" data-name="배경 요소 ③">
    <g>
      <polygon id="_완" data-name="완" class="cls-1" points="176.76 492.73 170.45 476.17 164.17 475.16 156.96 487.8 151.6 473.88 145.05 475.27 136.84 486.14 135.52 457.2 132.67 443.67 126.64 445.51 112.52 472.83 109.96 461.75 97.42 474.65 92.46 469.25 96.49 449.94 98.09 437.98 93.38 435.91 67.34 456.62 76.91 437.72 69.39 436.41 61.09 434.91 49.22 434.85 48.14 426.77 51.27 417.23 59.35 406.82 75.27 395.56 38.31 399.43 37.1 392.42 74.02 380.58 65.06 376.16 56.94 370.87 57.49 364.92 48.93 358.62 53.75 352.69 53.65 347.57 53.97 341.43 35.76 355.1 49.34 328.02 30.33 340.16 36.13 325.54 26.82 324.82 8.89 328.02 13.17 316.91 30.12 302.17 23.21 298.58 10.76 295.45 18.12 287.38 1.32 282.85 13.41 275.27 22.45 269.12 15.74 267.8 1.53 260.59 20.17 257.04 21.69 251.77 30.02 248.61 4.16 233.55 19.93 233.16 11.88 221.89 10.91 213.02 28.28 217.16 24.07 213.9 18.98 214.4 36.98 202.15 26.41 203.31 9.72 199.85 15.99 191.8 12.77 185.15 29.07 177.91 16.25 171.14 22.18 164.87 19.46 157.61 17.18 149.82 21.96 143.86 39.1 142.79 27.33 132.85 46.2 128.14 50.47 122.72 25.98 119.36 54.15 113.34 40.17 107.76 21.75 99.38 36.24 95.46 53.78 94.64 47.68 87.13 55.83 85.19 43.38 72.16 47.07 67.22 70.87 78.82 44.18 47.64 52.13 45.76 69.33 56.38 74.87 54.67 75.2 44.82 83.04 46.95 93.22 55.95 95.5 48.49 94.33 28.25 102.04 32.77 107.04 28.37 117.63 50.98 118.41 23.81 124.33 22.67 132.7 44.11 135.59 13.55 143.4 39.38 149.13 41.91 154.75 42.7 160.04 20.08 165.96 36.55 172.09 25.84 178.05 28.8 182.37 49.06 190.13 29.49 196.36 28.77 205.47 13.05 208.61 29.9 217.89 18.55 223.23 23.9 218.59 57.54 238.56 20.43 238.61 35.77 237.47 50.96 247.55 42.02 234.98 33.28 237.24 25.1 264.73 49.93 249.1 16.45 270.59 40.6 262.3 10.17 272.99 17.93 280.82 21.41 285.19 13.45 293.51 23.63 297.11 3.62 303.82 .58 310.76 5.78 316.94 15.36 321.1 33.69 328.12 23.29 337.76 8.05 333.27 45.57 340.14 40.03 345.41 40.29 358.37 27.42 362.87 31.91 361.89 43.25 355.99 58.13 361.2 59.08 371.59 56.36 393.01 47.14 373.63 67.61 388.18 65.4 398.02 67.47 407.91 70.73 376.53 87.2 390.99 88.77 377.58 96.48 384.01 112.44 408.73 86.32 410.82 100.8 420.57 93.61 419.77 108.93 428.78 105.43 426.24 118.88 429.31 123.34 440.81 119.44 442.1 126.12 429.49 142.66 437.88 143.05 456.91 139.33 442.23 152.51 467.74 149.58 478.1 154.16 457.54 165.63 462.01 171.19 483.87 176.23 440.52 183.74 453.74 189.29 481.06 197.91 442.61 198.5 475.31 211.36 447.85 210.14 446.36 215.19 447.29 221.46 460.2 235.2 431.78 224.08 438.4 235.16 437.47 241.71 449.91 263.48 437.03 259.32 417.85 243.13 430.43 274.24 424.97 279.74 405.2 249.66 407.76 274.58 390.46 265.33 406.62 274.12 402.2 280.14 409.52 286.69 404.23 292.63 379.18 294.08 399.8 304.41 409.31 314.22 398.06 317 406.18 328.32 394.79 329.79 362.93 329.99 403.1 326.45 389.29 341.33 404.69 342.07 375.44 358.31 377.58 362.84 378.81 367.74 392.22 371.51 420.2 376.03 381.29 383.34 392.13 388.85 413.19 396.55 418.32 404.18 375.44 401.76 382.65 408.52 385.18 414.75 406.75 430.39 368.39 417.38 366.91 421.33 372.99 431.27 384.49 448.33 366.6 438.94 360.53 439.42 363.17 451.78 351.98 444.4 357.65 466.3 343.69 449.95 344.58 467.77 332.36 446.84 329.75 457.15 323.48 451.37 318.47 451.43 313.38 450.25 308.37 450.5 302.39 468.52 296.41 465.02 290.43 487.36 284.45 448.08 278.47 485.64 272.49 493 266.51 474.02 260.53 462.55 254.54 484.68 248.56 453.66 242.58 473.67 236.6 475.64 230.62 476.7 224.64 485.9 218.66 473.45 212.68 471.05 206.7 465.15 200.71 467.78 194.73 476.24 188.74 466.36 197.74 478.64 176.76 492.73"/>
      <polygon id="_전" data-name="전" class="cls-1" points="536.76 477.6 531.29 454.91 524.69 478.04 517.93 486.78 512.1 481.49 505.23 485.42 504.27 453.99 492.58 482.74 494.49 449.35 491.46 441.56 485.8 443.04 482.17 438.71 466.91 458.75 454.64 467.51 459.09 447.72 447.88 452.72 455.74 433.38 450.9 430.69 433.06 439.47 445.05 421.51 419.53 432.75 437.88 413.42 416.35 418.72 422.36 408.75 403.87 409.41 423.38 395.76 405.33 394.7 407.53 387.5 417.98 379.22 396.32 376.25 397.74 369.46 428.59 360.94 415.47 355.86 409.55 350.62 427.51 345.12 404.7 339.37 399.61 333.6 420.95 329.53 412.41 323.79 420.75 302.88 398.12 324.8 413.2 298.85 382.11 322.68 389.11 306.89 395.63 294.24 378.32 298.64 381.34 289.53 378.74 283.97 378.66 277.5 359.9 276.48 358.43 269.43 387.16 258.42 350.55 255.64 358.06 248.14 385.72 242.74 393.34 238.28 366.07 228.06 387.42 226.66 389.33 221.61 364.11 205.55 393.84 211.85 381.74 198.85 372.43 187.08 388.42 190.29 405.73 195.01 394.7 181.52 392.81 175.36 399.73 163.68 382.9 167.82 399.82 153.07 371.54 159.26 358.08 156.58 385.66 142.61 388.47 136.77 375.59 133.03 381.44 126.87 360.45 121.34 388.25 116.25 392.13 111.6 358.03 101.12 369.2 96.62 369.63 90.18 389.4 90.85 367.09 74.91 399.92 85.27 399.62 79.74 373.71 53.47 402.83 70.04 407.14 67.42 398.26 48.56 407.09 50.22 411.93 46.92 426.62 62.89 424.78 47.22 427.46 38.43 436.82 49.61 443.59 56.49 446.34 44.34 449.92 27.32 457.3 49.52 462.36 43.86 468.42 51.95 474.49 31.23 480.55 41.38 486.62 18.9 492.68 26.19 498.75 29.5 504.82 19.36 510.88 23.21 516.94 32.99 523.01 32.81 529.07 38.12 535.14 15.2 541.21 42.26 547.28 13.57 553.34 13.63 559.41 34.21 565.49 18.45 571.56 47.83 578.26 14.18 584.81 16.17 590.84 20.74 590.64 52.53 601.53 30.94 601.29 50.44 610.58 40.99 623.11 28.55 620.55 46.75 636.7 58.34 624.16 30.17 628.8 24.61 646.41 46.5 647.34 34.8 651.53 28.9 658.33 31.59 666.35 44.55 670.98 41.84 675.5 31.35 681.16 38.34 687.01 26.13 695.23 5.19 701.92 8.51 705.27 24.86 716.28 9.95 707.97 51.62 727.57 20.17 735.48 20.26 741.56 24.13 741.05 36.64 738.85 48.88 737.87 57.77 740.04 63.15 764.47 51.97 749.18 70.01 753 74.32 743.33 84.64 750.32 87.22 751.02 92.37 760.75 95.71 782.21 98.81 780.29 106.04 755.36 112.95 779.54 119.03 771.78 125.12 768.8 131.2 762.4 137.29 786.43 143.37 765.31 149.46 769.15 155.55 773.03 161.63 791.24 167.72 764.87 173.81 765.38 179.9 770.36 185.98 761.97 192.07 776.6 198.16 759.75 204.25 784.29 210.34 789.12 216.43 787.49 222.52 757.87 228.6 767.76 234.69 750.48 240.78 764.17 246.87 772.11 252.97 754.52 259.05 760.26 265.15 753.75 271.25 761.69 277.34 767.35 282.89 778.49 289.85 786.67 297.83 757.79 297.44 763.15 304.55 751.61 305.75 754.57 312.59 745.28 313.15 761.85 325.45 739.12 341.01 770.38 331.87 779.41 335.83 751.41 351.61 770.39 352.66 766.39 359.72 753.42 367.11 770.82 371.55 761.65 377.74 787.27 384.72 779.87 391.01 764.3 395.21 778.13 404.37 782.36 412.73 781.53 420.15 761.97 419.37 771.35 431.42 736.9 417.86 750.39 433.49 732.47 425.84 731.22 431.01 733.31 440.67 732.37 448.39 734.06 461.76 719.44 448.65 726.8 477.65 714.44 465.48 713.62 484.42 706.68 487.02 695.53 464.74 689.15 460.3 684.17 472.11 677.96 458.95 672.08 483.97 666.2 490.71 660.32 472.11 654.44 471.07 648.56 464.59 642.67 468.54 636.79 457.21 630.91 469.7 625.03 465.36 619.15 452.93 613.26 458.65 607.38 448.86 601.5 477.42 595.61 479.2 589.73 459.04 583.85 457.84 577.97 448.1 572.08 469.95 566.2 451.9 560.31 480.53 554.43 471.83 548.54 459.31 532.16 454.66 536.76 477.6"/>
      <polygon id="_히" data-name="히" class="cls-1" points="1033.15 472.73 1027.56 458.76 1022.78 451.95 1015.46 463.08 1007.89 468.75 1007.67 449.16 999.02 456.78 990.03 461.87 992.71 444.71 991.73 436.9 986.04 436.32 976.33 439.49 966.98 440.78 955.68 442.31 965.86 426.77 946.08 432.48 935.03 430.43 957.23 412.82 959.59 406.22 944.54 404.81 937.77 411.09 932.72 386.94 927.78 388.38 933.03 417.76 929.18 426.83 921.19 422.83 916.36 430.61 909.34 429.19 899 402.84 894.44 411.68 888.85 414.42 882.63 403.45 877.15 433.46 870.82 419.54 865.27 408.28 859.23 408.86 854.61 399.29 845.42 417.74 835.88 430.59 836.66 401.31 834.86 387.9 819.71 413.66 812.38 414.19 811.2 401.03 804.75 400.01 808.65 381.02 800.19 384.15 790.85 387.4 797.9 368.61 789.15 370.82 767.61 385.47 779.14 365.17 780.82 356.24 748.29 375.19 772.77 348.96 742.57 362.17 755.95 346.31 758.42 338.58 752.73 335.3 730.37 338.72 738.62 328.69 754.28 317.29 735.04 317.2 748.45 307.91 725.34 306.83 730.08 299.77 749.66 291.56 714.87 288.77 746.21 281.14 732.3 275.74 754.36 270.33 730.55 263.25 751.58 259.23 735.52 251.32 727.38 243.52 738.38 239.4 759.21 238.96 760.66 233.99 763.59 229.61 757.45 222.58 739.57 215.64 740.97 211.75 758.62 192.13 741.92 196.74 727.94 197.2 722.17 192.43 739.52 180.03 720.19 179.1 734.15 170.11 739.37 163.94 747.91 158.21 729.54 153.34 706.41 146.3 715.52 140.13 708.8 132.21 737.83 131.63 725.24 122.1 733.08 118.3 734.96 112.6 746.7 112.45 723.95 90.58 754.86 105.76 740.36 85.24 766.48 103.86 756.07 83.23 754.59 70.03 760.6 66.58 768.62 67.19 770.88 55.35 783.17 69 788.57 65.5 796.92 69.61 790.14 55.59 815.07 66.86 797.43 41.37 806.39 39.76 821.15 48.8 818.91 34.33 820.5 23 827.82 21.83 837.01 26.93 839.92 13.17 853.78 44.28 859 44.13 863.35 35.01 868.64 26.03 874.75 36.18 880.34 38.63 887.97 17.51 892.43 32.41 896.73 40.41 909.68 14.32 916.08 17.99 916.78 34.47 924.59 32.82 919.13 53.98 921.42 59.24 951.08 31.6 951.2 42.94 959.22 45.89 944.92 65.68 946.94 72.56 953.47 66.11 957.23 62.46 948.46 48.99 956.5 47.53 977.76 59.69 970.51 44.08 981.35 47.88 982.76 40.09 981.29 25.66 988.09 24.04 1005.8 50.42 997.98 11.09 1012.89 41.3 1018.87 46.11 1023.03 41.07 1026.92 20.38 1033.15 42.04 1040.45 3.65 1043.45 40.47 1054.27 10.17 1056.5 30.18 1067.64 15.47 1072.88 21.38 1066.64 48.69 1087.45 23.76 1081.79 44.02 1086.06 47.83 1099.03 42.59 1101.46 49.26 1094.28 62.94 1119.3 52.53 1119.79 60.57 1095.8 80.06 1124.9 73.43 1115.3 83.81 1112.76 90.65 1102.98 98.29 1125.17 100.62 1101.97 108.4 1126.25 113.34 1116.12 119.33 1134.86 125.32 1099.38 131.31 1138.5 137.3 1117.33 143.29 1121.6 149.28 1142.56 155.27 1128.5 161.26 1109.92 167.25 1107.74 173.24 1130.14 179.23 1117.29 185.22 1100.66 191.21 1118.2 197.19 1129.18 203.18 1111 209.17 1101.14 215.16 1102.78 221.14 1135.75 227.13 1125.06 233.12 1102.67 239.11 1120.42 245.1 1108.96 251.09 1143.47 257.08 1139.05 263.07 1114.16 269.06 1135.02 275.05 1109.06 281.05 1126.68 287.04 1140.71 293.03 1110.84 299.02 1107.6 305.02 1129.21 311.01 1115.72 317 1139.25 323 1129.41 328.98 1113.03 334.97 1116.6 340.97 1134.78 346.96 1105.49 352.96 1107.7 358.95 1125.8 364.94 1099.51 370.94 1136.03 376.94 1104.88 382.95 1122.88 389.25 1101.16 392.63 1136.96 405.08 1116.88 407.07 1116.49 413.43 1118.47 421.19 1117.93 428.42 1096.32 422.33 1105.43 435.87 1100.13 439.6 1101.76 450.09 1082.2 437 1084.17 447.63 1091.5 468.99 1080.13 462.7 1077.26 471.08 1059.97 444.44 1067.36 483.2 1060.82 486.06 1047.37 450.25 1045.36 474.2 1039.6 480.9 1033.15 472.73"/>
    </g>
  </g>
</svg>