<?xml version="1.0" encoding="UTF-8"?>
<svg id="Layer_2" data-name="Layer 2" xmlns="http://www.w3.org/2000/svg" viewBox="0 0 1490.93 488.3">
  <defs>
    <style>
      .cls-1 {
        fill: none;
        stroke: #000;
      }
    </style>
  </defs>
  <g id="_배경_요소_" data-name="배경 요소 ③">
    <g>
      <polygon id="_삼" data-name="삼" class="cls-1" points="174.16 450.46 167.74 481.98 163.03 450.93 154.21 487.75 152.4 447.51 146.99 447.72 142.68 442.42 133.14 459.47 125.72 463.61 118.44 465.54 119.7 446.43 119.68 434.57 97.86 462.67 89.33 463.06 99.42 438.23 75.75 456.71 92.71 429.32 69.42 442.42 90.93 417.27 83.27 416.4 74.37 415.29 53.96 418.5 49.34 412.67 60.15 401.67 81.26 390 57.23 389.43 73.9 381.15 38.22 377.96 42.43 370.69 68.3 365.11 70.49 359.77 59.73 352.53 65.84 347.69 48.32 336.47 46.87 335.46 64.2 329.36 47.64 327.24 59.63 318.14 80.81 310.09 44.96 314.25 63.38 290.07 58.39 288.3 35.86 305.21 44.1 287.93 52.83 273.38 18.27 292.46 43.25 268.57 11.42 279.77 14.13 270.74 26.45 259.03 1.02 260.53 32.72 246.08 14.11 243.7 22.71 236.77 1.51 231.31 15.43 225.09 28.58 220.55 18.36 213.23 30.83 210.12 16.47 200.09 21.38 195.2 15.52 186.08 44.53 192.71 48.74 187.74 21.27 167.63 25.51 162.64 50.18 167.63 39.61 155.47 48.71 153.33 49.79 147.26 38.59 135.38 41.17 130.11 39.84 123.01 43.09 117.68 59.75 118.17 54.01 108.73 46.6 98.71 83.65 107.31 71.49 95.3 51.67 85.01 53.25 79.33 91.27 91.48 61.97 70.64 76.47 71.93 100.96 79.77 83.1 62.15 78.75 50.89 81.66 44.19 105.98 58.73 89.01 30.97 117.94 57.44 109.04 34.8 113.72 29.42 118.37 22.93 127.92 28.98 131.92 18.83 142.69 38.77 146.96 27.75 151.98 6.35 159.36 38.82 166.03 5.72 171.54 17.32 173.67 42.43 179.27 39.06 192.21 11.39 185.9 50.3 198.94 30.25 197.91 45.79 210.61 34.1 225.24 23.8 208.18 57.88 230.34 40.76 234.13 46.63 217.56 68.79 234.44 50.06 243.36 60.72 227.02 38.06 236.88 36.83 241.05 31.11 248.76 29.89 260.46 36 275.03 50.9 273.91 37.31 274.31 22.81 277.58 11.78 284.73 12.34 295.79 38.24 298 11.65 305.57 31.98 310.96 27.72 317.71 6.79 321.26 36.02 331.04 9.64 331.58 36.55 339.54 28.21 348.97 19.84 345.19 43.38 360.73 25.58 352.74 49.84 355.59 54.04 363.43 52.16 361.24 61.58 377.36 53.76 369.04 67.39 381.09 65.29 374.76 75.15 386.75 74.95 382.14 82.69 406.5 71.22 402.67 80.32 408.74 82.68 420.62 71.05 416.28 96.06 426.83 89.97 435 89.97 427.61 108.78 423.07 120.69 443.6 109.46 430.73 126.37 458.05 115.68 443.87 130.56 457.08 131.16 467.94 134.36 446.46 147.01 463.64 149.38 441.16 158.53 462.5 162.38 481.48 168.69 452.44 174.08 456.31 179.92 454.6 185.31 449.21 189.69 451.52 195.89 435.3 195.38 440.57 202.72 441.49 208.87 431.52 208.36 442.36 222.57 435.9 224.44 439.1 236.31 425.07 229.49 422.22 235.04 429.78 259.58 408.27 232.08 412.11 256.27 407.55 265.42 403.05 258.7 408.89 261.49 378.45 257.52 392.8 268.49 393.8 275.25 380.75 277.85 371.67 290.41 387.7 290.24 379.38 298.11 394.63 300.28 408.08 304.27 375.89 313.69 391 317.9 412.21 323.49 389.98 329.63 375.79 335.78 380.18 341.93 389.45 348.08 393.09 354.22 390.36 360.37 391.52 366.53 400.31 372.69 397.33 378.83 409.45 386.23 386.57 389.59 406.19 399.53 411.22 408.05 392.56 409.29 373.68 408.01 386.31 420.04 398.43 434.53 378.96 429.8 381.3 439.57 363.32 431.4 360.75 436.33 358.39 442.03 359 453.12 357.43 463.14 341.86 445.98 333.58 439.37 338.2 469.07 327.09 452.27 322.1 455.1 316.43 454.85 312.36 470.95 306.32 477.01 299.76 455.73 293.78 453.61 287.81 459.37 281.83 480.01 275.85 452.78 269.87 479.1 263.89 470.99 257.91 479.93 251.93 450.15 245.95 466.47 239.97 473.85 233.99 478.26 228.01 475.79 222.03 476.37 216.05 445.98 210.07 465.28 204.09 456.89 198.1 483.44 192.13 487.49 186.14 464.65 169.78 474.56 174.16 450.46"/>
      <polygon id="_켜" data-name="켜" class="cls-1" points="684.56 449.22 677.58 480.03 674.16 450.26 668.02 455.08 661.06 460.03 649.88 474.98 646.83 463.68 648.87 445.01 641.3 447.64 621.27 466.91 617.8 459.21 610.81 456.18 615.17 442.3 604.99 442.82 605.37 434.28 607.59 425.45 595.78 425.12 615.37 409.26 598.73 410.16 586.08 407.58 617.33 394.2 615.17 390.08 614.52 385.62 599.46 381.09 602.38 375.15 598.63 369.21 614.29 357.53 593.73 370.57 575.27 361.13 569.27 362.71 575.88 378.06 569.12 379.1 575.86 397.11 569.25 398.82 568.83 409.4 552.42 395.54 539.53 385.05 546.01 408.32 548.27 426.5 538.2 407.71 536.91 420.09 532.64 427.43 525.14 426.29 519.06 429.24 508.53 412.33 502.95 414.12 500.01 437.86 490.96 410.49 486.78 410.6 482.62 410.25 475.32 435.15 467.63 437.71 462.61 423.1 461.51 399.5 452.5 410.58 451.3 396.74 441.27 405.84 429.21 416.12 432.33 399.04 415.74 411.88 425.8 389.84 428.66 379.6 423.59 377.87 417.29 376.55 404.92 378.5 405.74 371.27 409.34 363.25 381.47 369.29 389.34 365.54 391.92 358.08 385.05 353.91 382.28 348.16 393.19 339.93 366.7 337.16 365.08 330.06 398.25 323.42 408.26 319.06 377.03 309.92 402.89 308.66 391.55 300.35 407.83 299.8 410.87 295.76 390.92 280.85 388.43 271.41 392.34 265.09 411.86 270.89 427.5 264.38 398.32 262.09 386.2 260.17 405.43 245.98 393.43 243.33 401.57 235.49 384.59 231.55 388.6 224.66 416.16 219.33 417.68 214.87 401.22 207.44 403.05 202.07 412.03 194.9 397.36 193.26 379.36 196.01 386.37 184.53 376.2 181.37 406.61 164.1 409.77 158.19 370.22 160.74 376.31 152.81 383.47 145.69 386.12 139.49 407.03 134.54 389.3 127.36 370.72 117.64 378.48 112.05 391.77 109.14 393.36 103.13 404.22 101.53 382.63 82.7 405.58 89.05 415.59 89.26 398.71 67.28 410.05 68.9 404.64 52.01 429.43 74.58 431.81 68.46 426.3 44.6 442 64.71 442.97 49.9 450.91 55.67 455.34 47.14 464.15 69.06 468.98 66.34 474.16 56.86 480.13 33.89 486.1 67.55 492.07 60.92 498.04 56.48 504 36.57 509.97 46.72 515.94 30.86 521.91 43.71 527.88 42.37 533.86 61.42 539.82 33.77 545.8 54.49 551.78 70.5 557.76 47.89 563.83 45.51 570.63 37.5 573.6 64.52 581.38 51.04 589.19 44.03 596.53 42.04 592.68 71.39 609.51 45.92 607.44 53.21 614.12 58.06 629.48 64.21 617.21 46.31 616.15 35.82 627.04 38.7 624.39 23.69 640.18 36.85 649.48 42.88 652.85 37.61 661.49 47.11 661.47 28.02 667.4 28.2 670.48 4.92 678.91 29.03 684.56 33.88 689.85 36.25 699.08 3.42 701.67 29.75 705.28 38.46 718.76 14.45 727.65 11.5 722.57 37.96 736.6 25.61 745.91 24.43 734.66 49.32 755.23 35.77 761.76 39.44 767.55 44.01 748.1 65.94 775.85 56.01 778.24 62.98 766.11 75.72 772.48 80.05 763.67 88.92 761.38 95.12 751.18 101.87 791 104.29 787.11 111.49 753.93 117.47 783.98 123.47 755.95 129.45 752.64 135.44 759.17 141.43 757.53 147.42 765.66 153.41 780.23 159.4 768.37 165.39 784.59 171.38 769.83 177.37 763.4 183.36 770.66 189.35 782.94 195.33 769.28 201.32 767.4 207.31 783.99 213.3 788.3 219.29 760.18 225.27 787.1 231.27 764.28 237.25 757.82 243.24 784.02 249.23 775.91 255.22 763.06 261.21 784.43 267.2 750.83 273.2 763.55 279.19 789.51 285.18 794.12 291.17 793.94 297.16 768.94 303.16 790.17 309.15 779.25 315.14 755.3 321.14 771.34 327.12 781.05 333.12 773.55 339.11 761.67 345.1 757.74 351.1 788.57 357.09 776.05 363.09 778.29 369.08 753.23 375.08 767.61 381.09 764.3 386.72 787.69 395.59 761.86 397.62 772.81 406.52 776.95 414.95 770.14 419.46 750.28 415.97 760.73 429.03 740.79 421.69 765.28 449.94 740.28 435.11 742.49 445.5 730.5 438.98 732.09 450.38 728.17 454.74 725.82 463.11 715.8 454.08 709.32 451 712.33 484.65 705.53 486.79 695.62 462.32 689.11 445.05 684.56 449.22"/>
      <polygon id="_지" data-name="지" class="cls-1" points="1032.95 472.1 1027.25 458.73 1022.54 450.43 1017.57 448.94 1011.23 453.17 1003.11 460.41 991.62 472.43 984.93 469.9 986.88 452.43 972.99 462.07 974.23 449.08 972.29 441.84 960.14 445.45 950.86 444.68 941.33 442.92 965.43 419.19 952.71 420.09 969.88 406.12 941.11 422.01 939.24 388.44 933.75 397.64 926.56 430.24 919.21 430.71 911.81 430.17 907.58 415.81 897.11 427 904.2 387.81 896.4 392.9 897.54 379.8 877.09 402.57 880.92 386.56 872.17 385.29 869.47 394.57 868.61 405.18 855.58 393.16 851.45 397.43 853.14 420.34 842.21 405.51 831.93 382.51 831.55 413.42 824.75 403.31 819.27 384.63 812.23 418.67 809.28 387.49 803.38 391.28 793.13 409.33 788.51 402.27 789.53 381.77 777.07 397.18 775.24 387.25 757.25 405.62 760.12 388.87 768.06 369.53 760.18 370.72 743.74 378.13 750.2 365.11 747.23 360.42 752.71 351.27 742.97 350.23 723.75 351.31 713.1 347.36 711.71 340.22 723.72 331.34 744.11 323.69 743.85 318.74 747.05 313.92 740.94 308.28 720.67 299.34 751.41 299.75 732.85 289.39 745.94 287.28 725.94 274.83 731.76 270.46 742.89 268.41 751.67 265.89 724.37 247.46 726.59 241.52 751.68 247.12 758.86 243.27 745.86 229.65 755.18 226.82 756.26 220.13 772.3 219.82 775.78 220.34 752.62 228.44 743.73 225.38 737.99 220.46 737.93 210.11 740.14 199.32 732.68 196.76 741.26 184.12 732.3 182.21 721.2 179.96 719.24 173.46 735.3 162.76 708.6 161.69 731.98 152.02 726.74 146.62 742.15 140.69 708.2 133.79 705.94 126.54 740.02 125 749.09 121.86 743.39 115.37 733.21 106.08 715.39 91.06 731.2 91.44 743.9 92.27 759.35 97.53 747.63 80.39 758.38 83.37 761.54 78.91 755.56 60.62 759.68 54.78 778.6 77.62 770.97 47.24 782.89 60.89 792.24 73.2 792.94 53.6 796.99 41.01 804.56 50.55 811.73 74.28 816.55 62.02 822.7 53.42 828.84 59.12 834.99 72.67 841.13 35.11 847.28 48.19 853.43 54.9 859.57 42.06 865.72 74.86 871.87 40.1 878.01 37.11 884.15 44.82 890.3 36.42 896.45 50.95 902.59 52.58 908.74 68.44 914.89 72.98 921.04 58.04 927.2 31.91 933.35 67.9 938.25 67.87 943.52 63.87 948.16 66.91 954.19 61.83 954.63 35.31 981.06 66.62 982.75 62.85 970.24 42.15 972.59 35.05 972.58 23.38 991.99 42.82 987.86 22.11 1002.43 40.6 998.21 10.59 1013.72 43.65 1014.51 21.04 1021.33 26.23 1027.82 38.2 1032.95 18.74 1040.32 .54 1047.7 1.49 1053.23 12.8 1054.91 33.68 1066.43 16.62 1076.66 10.05 1072.74 34.47 1075.48 41.23 1092.85 26.45 1097.49 32.03 1097.37 42.24 1110.32 39.3 1105.78 51.94 1105.45 59.89 1093.55 73.79 1100.16 75.96 1097.77 82.54 1121.73 79.76 1137.37 82.42 1121.75 92.87 1103.04 101.44 1116.63 105.65 1129.81 111.49 1133.86 117.47 1136.91 123.47 1125.49 129.45 1130.19 135.44 1131.86 141.43 1138.76 147.42 1135.1 153.41 1127.16 159.4 1141.06 165.39 1132.08 171.38 1119.76 177.37 1135.22 183.36 1117.62 189.35 1104.34 195.33 1110.92 201.32 1125.53 207.31 1121.7 213.3 1108.67 219.29 1118.98 225.27 1116.23 231.27 1114.84 237.25 1139.36 243.24 1123.82 249.23 1121.39 255.22 1141.3 261.21 1111.39 267.2 1102.4 273.2 1121.16 279.19 1115.82 285.18 1117.95 291.17 1127.94 297.16 1104.8 303.16 1109.57 309.15 1138.21 315.14 1108.29 321.14 1126.58 327.12 1133.83 333.12 1126 339.11 1133.01 345.1 1114.54 351.1 1135.36 357.09 1141.3 363.09 1106.09 369.08 1129.02 375.08 1137.86 381.09 1119.65 387.18 1123.02 393.8 1140.64 404.04 1126.57 408.08 1096.15 404.07 1131.75 425.55 1118.8 427.16 1111.98 430.91 1089.01 421.56 1098.36 436.35 1090.2 436.66 1097.45 453.15 1087.85 450.98 1086.82 460.2 1070.58 443.9 1071.09 456.39 1060.85 445.41 1055.5 443.89 1052.55 450.76 1052.29 477.51 1045.35 474.07 1037.68 448.1 1032.95 472.1"/>
      <polygon id="_지-2" data-name="지" class="cls-1" points="1381.35 473.34 1375.53 460.56 1370.89 450.77 1360.04 480.4 1352.04 482.56 1347.15 473.52 1349.75 448.76 1348.19 439.9 1329.65 462.02 1328.03 452.38 1311.01 463.71 1316.84 446.06 1301.82 451.89 1294.45 448.68 1301.28 434.57 1295.22 430.72 1318.62 410.9 1290.05 418.44 1297.61 406.45 1289.14 409.87 1282.15 415.22 1275.43 421.52 1268.38 423.77 1266.35 394.94 1258.74 404.33 1256.44 392 1250.2 393.98 1237.47 408.42 1229.94 408.29 1219.97 410.94 1233.87 380.61 1220.28 393.07 1209.3 381.58 1220.39 411.15 1204.46 394.18 1200.68 399.54 1198.06 409.68 1189.68 401.9 1180.62 384.05 1176.41 385.24 1174.25 421.03 1167.66 398.75 1160.58 419.35 1154.27 413.26 1146.24 419.47 1147.03 388.09 1133.89 411.77 1128.48 406.88 1117.08 415.96 1121.23 391.82 1126.51 371.71 1101.69 398.36 1117.23 368.6 1099.96 379.54 1110.43 362.11 1083.28 376.53 1100.6 357.28 1069.93 367.7 1095.53 348.43 1079.75 348.63 1092.55 338.77 1073.82 337.44 1073.31 331.18 1055.02 326.13 1076.98 318.75 1077.42 312.83 1088.72 308.2 1081.3 301.48 1067.08 292.27 1085.31 290.5 1088.84 285.61 1070.12 273.42 1102.27 278.53 1096.54 270.48 1079.46 257.18 1094.98 257.48 1078.45 243.17 1086.13 240.07 1096.32 237.89 1115.05 239.57 1109.69 229.64 1104.97 220.27 1110.62 215.58 1091.87 205.78 1121.31 200.79 1113.63 197.66 1096.25 209.57 1083.38 212.89 1080.17 206.07 1100.3 183.59 1075.62 192.2 1076.2 184.36 1078.01 176.68 1068.33 173.24 1066.42 166.83 1073.74 158.85 1091.93 150.77 1075.79 146.59 1062.78 140.69 1073.4 134.66 1054.75 126.59 1088.51 125.02 1086.08 119.17 1086.03 113.59 1085.17 107.47 1097.68 107.27 1085.63 94.91 1103.7 100.09 1103.63 94.21 1097.47 81.76 1085.9 60.33 1113.55 83.57 1104.56 61.51 1116.29 68.79 1121.01 65.67 1117.63 43.13 1130.09 57.47 1135.18 53.7 1144.4 67.8 1145.52 41.85 1153.28 53.74 1159.89 69.48 1164.95 56.07 1171.09 38.09 1177.23 58.01 1183.38 49.19 1189.53 52.83 1195.67 32.14 1201.82 67.18 1207.97 71.78 1214.11 41.26 1220.26 44.7 1226.4 37.15 1232.55 37.47 1238.69 70.06 1244.84 33.49 1250.99 33.67 1257.14 60.96 1263.28 61.76 1269.44 35.79 1275.59 49.11 1281.75 74.44 1287.92 40.44 1290.82 75.21 1298.87 51.38 1308.03 35.28 1305.72 44.02 1314.51 53.73 1308.91 41.4 1315.62 38.8 1323.82 38.68 1342.13 54.86 1334.86 33.18 1339.86 29.6 1350.07 38.71 1348.69 17.12 1352.11 3.13 1363.1 22.13 1368.05 11.73 1375.77 30.17 1381.35 43.99 1386.49 38.93 1393.75 21.02 1401.11 15.53 1409.67 9.11 1409.52 32.36 1410.03 45.79 1422.03 32.72 1422.73 43.11 1445.42 20.63 1451.3 25.54 1456.23 31.41 1458.77 39.25 1448.12 56.67 1468.55 49.96 1455.37 66.02 1478.11 61.47 1476.17 70.32 1449.27 86.64 1457.41 89.7 1447.55 97.11 1473.39 98.76 1465.92 105.6 1473.37 111.49 1472.41 117.47 1483.93 123.47 1482.25 129.45 1487.39 135.44 1469.76 141.43 1453.09 147.42 1464.36 153.41 1450.65 159.4 1456.06 165.39 1450.94 171.38 1487.46 177.37 1456.32 183.36 1454.65 189.35 1490.79 195.33 1469.3 201.32 1452.35 207.31 1456.24 213.3 1485.4 219.29 1483.87 225.27 1460.63 231.27 1469.31 237.25 1483.85 243.24 1457.19 249.23 1477.21 255.22 1451.64 261.21 1462.31 267.2 1471.23 273.2 1450.2 279.19 1469.4 285.18 1476.9 291.17 1475.26 297.16 1486.99 303.16 1473.01 309.15 1451.09 315.14 1452.14 321.14 1485.16 327.12 1481.47 333.12 1450.58 339.11 1462.39 345.1 1451.88 351.1 1475.3 357.09 1450.64 363.09 1455.9 369.08 1483.54 375.08 1477.99 381.09 1448.91 385.91 1475.22 394.32 1466.38 399.25 1478.67 409.15 1459.01 409.46 1470.32 421.02 1473.84 430.86 1464.91 433.88 1451.17 432.13 1456 444.56 1436.59 434.62 1440.94 447.43 1433.85 447.77 1433.49 457.51 1421.76 448.95 1429.03 476.89 1411.94 452.39 1416.4 484.1 1406.69 474.59 1400.67 477.46 1390.67 447.09 1387.96 482.06 1381.35 473.34"/>
    </g>
  </g>
</svg>